<?xml version="1.0" encoding="utf-8"?>
<svg xmlns="http://www.w3.org/2000/svg" height="512pt" version="1.1" viewBox="0 0 512 512" width="512pt">
<path d="M 0.00 0.00 L 512.00 0.00 L 512.00 512.00 L 0.00 512.00 L 0.00 0.00 Z" fill="#fefffe" opacity="1.00" stroke="#fefffe" stroke-width="0.25"/>
<path d="M 37.36 93.96 C 36.69 82.04 47.06 70.76 58.95 70.25 C 142.65 70.26 226.34 70.28 310.04 70.23 C 320.32 70.10 329.39 78.63 331.59 88.37 C 332.29 97.55 331.59 106.76 331.82 115.95 C 331.77 137.95 331.87 159.96 331.77 181.97 C 331.73 183.82 331.99 185.67 332.30 187.50 C 368.88 187.37 405.47 187.50 442.06 187.43 C 453.61 187.20 464.62 197.21 464.67 208.92 C 464.64 265.95 464.64 322.98 464.67 380.01 C 464.60 383.96 464.99 387.97 464.25 391.89 C 462.22 400.28 455.43 407.50 446.99 409.59 C 443.08 410.72 438.98 410.33 434.97 410.38 C 310.33 410.39 185.68 410.36 61.03 410.39 C 49.32 410.37 37.98 400.54 37.38 388.65 C 37.34 290.42 37.37 192.19 37.36 93.96 Z" fill="#402445" opacity="1.00" stroke="#402445" stroke-width="0.25"/>
<path d="M 61.73 95.96 C 63.35 95.09 65.01 94.13 66.92 94.32 C 147.10 94.37 227.28 94.32 307.46 94.37 C 308.89 95.95 310.96 97.45 310.67 99.87 C 310.60 129.14 310.73 158.43 310.57 187.70 C 307.78 187.76 304.94 187.14 303.47 184.55 C 287.88 162.87 271.65 141.62 256.57 119.57 C 252.42 113.76 244.85 111.29 237.96 112.65 C 236.93 113.03 235.89 113.41 234.86 113.77 C 231.28 115.40 228.52 118.24 226.32 121.44 C 203.01 149.73 178.46 176.94 155.01 205.11 C 151.98 209.13 147.36 211.32 143.34 214.18 C 136.33 218.94 129.28 223.66 122.21 228.35 C 117.40 231.54 113.69 236.41 112.27 242.04 C 109.64 251.19 113.13 260.97 118.51 268.41 C 124.67 274.95 130.84 281.50 136.75 288.27 C 158.73 312.30 180.85 336.20 202.93 360.14 C 205.37 363.73 208.69 366.49 212.20 368.98 C 221.15 376.10 230.90 382.69 241.93 386.08 C 241.21 387.63 239.40 387.14 238.02 387.15 C 230.36 386.46 222.66 386.92 214.98 386.78 C 165.99 386.78 117.00 386.80 68.01 386.79 C 66.14 386.64 63.81 387.14 62.53 385.38 C 59.74 383.06 60.66 379.18 60.51 376.03 C 60.53 284.34 60.51 192.66 60.52 100.98 C 60.43 99.21 61.19 97.59 61.73 95.96 Z" fill="#fefffe" opacity="1.00" stroke="#fefffe" stroke-width="0.25"/>
<path d="M 158.62 240.57 C 186.55 203.49 215.67 167.31 244.06 130.57 C 260.84 155.78 277.17 181.30 293.73 206.65 C 319.05 206.78 344.37 206.80 369.69 206.62 C 370.36 216.80 367.55 227.26 361.60 235.57 C 356.93 241.27 351.45 246.26 346.64 251.85 C 313.94 287.73 281.02 323.42 248.57 359.51 C 246.29 362.00 243.06 363.15 240.03 364.41 C 234.28 365.30 228.07 364.34 223.67 360.26 C 193.84 327.69 164.43 294.71 134.53 262.19 C 134.50 261.88 134.45 261.24 134.43 260.93 C 142.35 253.98 150.89 247.72 158.62 240.57 Z" fill="#fefffe" opacity="1.00" stroke="#fefffe" stroke-width="0.25"/>
<path d="M 388.01 210.23 C 401.34 210.18 414.68 210.18 428.01 210.19 C 431.77 210.26 435.59 209.36 439.25 210.60 C 440.00 211.63 440.75 212.66 441.53 213.68 C 441.79 263.78 441.56 313.90 441.64 364.00 C 441.57 370.43 441.78 376.86 441.48 383.29 C 440.63 384.31 439.79 385.34 438.99 386.40 C 436.02 386.90 433.00 386.83 430.00 386.80 C 397.42 386.76 364.84 386.85 332.26 386.75 C 332.20 385.16 332.14 383.58 332.10 382.00 C 332.30 373.67 332.21 365.33 332.13 356.99 C 331.97 343.98 332.44 330.96 331.94 317.96 C 332.17 316.72 333.15 315.86 333.95 314.98 C 349.38 298.70 363.96 281.62 379.53 265.48 C 382.24 262.32 384.05 258.53 385.87 254.82 C 389.80 246.12 391.04 236.48 391.30 227.02 C 391.55 221.24 389.88 215.63 388.01 210.23 Z" fill="#fefffe" opacity="1.00" stroke="#fefffe" stroke-width="0.25"/>
<path d="M 292.61 359.56 C 298.70 353.33 304.02 346.33 310.61 340.60 C 310.66 354.90 310.75 369.21 310.57 383.52 C 309.14 384.70 308.01 386.73 305.93 386.68 C 300.96 386.96 295.97 386.67 291.00 386.85 C 281.64 386.50 272.25 387.28 262.91 386.50 C 270.08 385.80 274.42 379.76 278.80 374.79 C 283.22 369.55 288.18 364.80 292.61 359.56 Z" fill="#fefffe" opacity="1.00" stroke="#fefffe" stroke-width="0.25"/>
<path d="M 80.00 435.90 C 87.41 423.95 104.41 420.36 116.70 426.49 C 119.56 427.85 122.04 429.86 124.53 431.80 C 122.08 433.51 120.53 437.51 117.05 436.75 C 112.83 432.19 106.18 430.62 100.18 431.54 C 91.68 432.61 84.68 440.40 84.25 448.91 C 82.51 459.68 90.80 471.16 101.96 471.60 C 107.73 472.13 113.32 470.00 118.24 467.17 C 118.22 463.67 118.25 460.17 118.22 456.67 C 114.39 456.74 110.57 456.75 106.74 456.63 C 106.77 454.25 106.76 451.88 106.73 449.52 C 113.22 449.44 119.71 449.38 126.19 449.53 C 125.98 456.98 125.74 464.42 125.84 471.88 C 122.42 473.88 118.87 475.68 115.23 477.27 C 106.10 480.25 95.58 480.04 87.41 474.55 C 75.13 466.40 72.05 448.08 80.00 435.90 Z" fill="#402445" opacity="1.00" stroke="#402445" stroke-width="0.25"/>
<path d="M 263.57 423.84 C 266.19 423.90 268.81 424.05 271.43 424.15 C 271.48 431.18 271.35 438.21 271.34 445.25 C 273.34 443.00 275.19 440.39 278.07 439.20 C 284.11 436.17 292.48 437.81 296.30 443.57 C 298.55 446.93 299.19 451.05 299.25 455.02 C 299.30 462.58 299.13 470.15 299.30 477.72 C 296.62 477.80 293.93 477.82 291.25 477.82 C 291.31 470.55 291.29 463.28 291.30 456.01 C 291.21 453.23 290.99 450.15 289.09 447.94 C 285.70 443.61 278.45 443.78 274.85 447.78 C 272.08 450.38 271.40 454.35 271.45 458.00 C 271.50 464.57 271.29 471.16 271.51 477.74 C 268.88 478.14 266.22 478.27 263.57 478.26 C 263.51 460.12 263.57 441.98 263.57 423.84 Z" fill="#402445" opacity="1.00" stroke="#402445" stroke-width="0.25"/>
<path d="M 310.82 424.29 C 313.63 424.16 316.46 424.15 319.28 424.15 C 319.31 426.88 319.31 429.62 319.32 432.36 C 316.49 432.37 313.66 432.37 310.84 432.38 C 310.87 429.68 310.86 426.98 310.82 424.29 Z" fill="#402445" opacity="1.00" stroke="#402445" stroke-width="0.25"/>
<path d="M 155.72 438.16 C 157.18 438.07 159.45 436.83 160.19 438.70 C 160.36 441.17 160.21 443.64 160.15 446.11 C 155.13 445.84 149.44 447.44 147.35 452.50 C 143.98 460.43 146.00 469.35 145.46 477.72 C 142.86 478.18 140.21 478.30 137.57 478.18 C 137.60 465.21 137.73 452.25 137.57 439.28 C 140.12 438.74 142.74 438.73 145.34 438.95 C 145.22 441.66 145.21 444.39 145.51 447.09 C 147.46 442.87 150.87 438.86 155.72 438.16 Z" fill="#402445" opacity="1.00" stroke="#402445" stroke-width="0.25"/>
<path d="M 228.88 439.02 C 235.72 435.95 244.10 438.78 248.73 444.41 C 254.89 451.20 255.31 462.07 250.70 469.80 C 246.59 476.81 237.69 480.86 229.80 478.35 C 226.22 476.91 223.89 473.82 220.87 471.61 C 220.84 473.38 220.86 475.15 220.89 476.93 C 220.77 482.05 220.94 487.17 220.66 492.29 C 218.25 492.23 215.84 492.22 213.44 492.24 C 213.29 474.42 213.36 456.60 213.42 438.78 C 215.85 438.80 218.28 438.79 220.71 438.74 C 220.76 440.87 220.79 443.00 220.87 445.14 C 223.51 443.05 225.51 440.06 228.88 439.02 Z" fill="#402445" opacity="1.00" stroke="#402445" stroke-width="0.25"/>
<path d="M 335.76 442.70 C 343.69 435.76 356.86 436.27 364.07 444.01 C 364.99 444.70 364.66 445.92 364.72 446.91 C 362.97 448.06 361.37 449.40 359.84 450.81 C 357.58 448.55 355.34 445.76 351.97 445.33 C 348.68 445.02 344.89 444.80 342.19 447.06 C 336.03 451.34 334.71 460.88 339.20 466.82 C 341.97 470.87 347.34 472.85 352.09 471.71 C 355.45 471.22 357.69 468.42 360.07 466.29 C 362.05 467.78 364.03 469.28 365.94 470.88 C 362.90 474.21 359.23 477.11 354.84 478.39 C 348.96 479.44 342.47 479.22 337.46 475.57 C 326.45 468.59 325.78 450.87 335.76 442.70 Z" fill="#402445" opacity="1.00" stroke="#402445" stroke-width="0.25"/>
<path d="M 169.24 442.13 C 176.50 438.66 185.05 436.56 192.86 439.44 C 198.13 441.34 201.43 446.86 201.52 452.35 C 201.76 460.79 201.51 469.25 201.57 477.70 C 199.19 477.92 196.81 478.15 194.43 478.32 C 194.36 476.56 194.29 474.79 194.23 473.04 C 191.41 475.09 188.81 477.86 185.26 478.55 C 179.99 479.30 173.88 479.17 169.95 475.05 C 166.24 471.69 165.84 466.38 166.61 461.74 C 168.75 456.79 173.74 453.58 179.06 453.27 C 184.29 452.28 189.46 453.86 194.54 454.90 C 194.12 451.73 193.38 448.21 190.37 446.47 C 185.00 443.43 177.99 444.78 173.16 448.28 C 172.85 448.31 172.22 448.38 171.91 448.42 C 170.85 446.40 169.77 444.36 169.24 442.13 Z" fill="#402445" opacity="1.00" stroke="#402445" stroke-width="0.25"/>
<path d="M 311.31 439.15 C 313.96 439.15 316.61 439.18 319.25 439.29 C 318.74 452.29 319.88 465.36 318.56 478.31 C 316.09 478.21 313.63 478.05 311.18 477.79 C 311.35 464.91 311.22 452.03 311.31 439.15 Z" fill="#402445" opacity="1.00" stroke="#402445" stroke-width="0.25"/>
<path d="M 384.35 439.64 C 391.52 436.44 400.42 437.61 406.38 442.77 C 415.16 450.01 416.11 464.98 407.62 472.83 C 399.18 481.90 382.57 480.67 375.80 470.21 C 368.66 460.29 372.70 444.10 384.35 439.64 Z" fill="#402445" opacity="1.00" stroke="#402445" stroke-width="0.25"/>
<path d="M 230.01 445.25 C 234.35 443.82 239.01 445.70 242.27 448.63 C 245.72 452.87 246.78 458.72 244.86 463.87 C 243.04 468.17 238.94 471.87 234.06 471.84 C 225.12 472.83 218.66 462.28 221.39 454.32 C 222.63 450.18 225.71 446.39 230.01 445.25 Z" fill="#fefffe" opacity="1.00" stroke="#fefffe" stroke-width="0.25"/>
<path d="M 390.57 445.05 C 398.56 443.37 406.32 451.03 405.54 458.99 C 405.59 466.04 399.22 472.76 391.96 471.87 C 382.91 471.68 377.79 460.77 381.12 452.96 C 382.84 449.09 386.34 445.85 390.57 445.05 Z" fill="#fefffe" opacity="1.00" stroke="#fefffe" stroke-width="0.25"/>
<path d="M 176.23 460.49 C 182.01 457.43 188.58 458.91 194.50 460.69 C 195.63 468.52 187.31 474.74 180.03 472.65 C 176.56 472.19 174.52 469.12 173.52 466.05 C 174.17 464.08 175.00 462.18 176.23 460.49 Z" fill="#fefffe" opacity="1.00" stroke="#fefffe" stroke-width="0.25"/>
</svg>